<svg width="735" height="860" viewBox="0 0 735 860" fill="none" xmlns="http://www.w3.org/2000/svg">
<path d="M0 0H735V860H0V0Z" fill="#202126"/>
<ellipse cx="407.364" cy="428.454" rx="106.858" ry="120.03" fill="url(#paint0_linear_214_22913)"/>
<g filter="url(#filter0_d_214_22913)">
<path d="M287.699 543C258.286 532.54 274.138 488.452 292.668 454.361C296.094 448.057 305.238 449.517 306.862 456.506C307.409 458.862 306.842 461.319 305.498 463.329C291.908 483.65 288.7 515.768 307.726 507.652C340.28 493.767 443.714 330.943 503.272 315.596C570.921 298.165 550.586 358.441 529.437 400.38C526.078 407.042 516.469 405.449 515.111 398.113C514.629 395.508 515.492 392.855 516.856 390.584C527.932 372.142 537.148 310.566 486.67 376.573C449.127 425.665 334.084 559.495 287.699 543Z" fill="url(#paint1_linear_214_22913)"/>
</g>
<path d="M344.458 289.496C346.85 287.446 349.111 285.21 351.224 282.803C352.09 281.528 355.101 277.747 356.934 275.465C357.878 274.289 359.131 273.481 360.511 273.158L373.653 270.068C373.653 270.068 376.302 272.806 363.888 276.092L362.182 280.926C362.182 280.926 370.037 278.408 369.431 283.153L362.73 284.485L345.23 305.16L344.458 289.496Z" fill="url(#paint2_linear_214_22913)"/>
<path d="M349.478 284.429C349.478 284.429 353.052 287.198 355.671 298.75L325.749 333.287C323.608 335.757 320.713 337.224 317.647 337.392L264.496 330.995L265.205 305.316L313.849 315.561L349.478 284.429Z" fill="#00D98B"/>
<path d="M385.814 368.493L410.123 396.144L398.314 401.695L370.079 379.424L385.814 368.493Z" fill="url(#paint3_linear_214_22913)"/>
<mask id="mask0_214_22913" style="mask-type:luminance" maskUnits="userSpaceOnUse" x="370" y="368" width="41" height="34">
<path d="M385.814 368.491L410.123 396.142L398.313 401.693L370.078 379.422L385.814 368.491Z" fill="white"/>
</mask>
<g mask="url(#mask0_214_22913)">
<path opacity="0.4" d="M381.621 398.961C386.767 397.785 387.415 390.225 394.832 376.967C398.832 369.816 377.8 381.944 377.8 381.944L374.783 393.768" fill="#ED707B"/>
</g>
<path d="M385.814 368.493L410.123 396.144L398.314 401.695L370.079 379.424L385.814 368.493Z" stroke="#190000" stroke-width="0.226102" stroke-linecap="round" stroke-linejoin="round"/>
<path d="M398.13 402.009L402.457 386.262C402.457 386.262 415.764 397.438 426.216 385.789C436.506 374.32 439.951 380.675 439.951 380.675L415.217 410.086C413.834 411.57 411.987 412.385 410.074 412.358C408.161 412.33 406.334 411.462 404.985 409.938L398.13 402.009Z" fill="#5A4132"/>
<path d="M394.832 376.966C394.832 376.966 386.711 392.593 379.867 396.415L336.393 359.208L297.84 387.972C292.514 395.895 284.907 390.255 275.525 390.391L276.512 399.68C269.625 399.779 270.268 395.776 264.863 391.282L254.617 378.598L274.321 354.878L282.303 368.904L317.501 330.528C333.673 312.797 343.33 317.131 354.318 330.149L394.832 376.966Z" fill="#2E4C60"/>
<path d="M384.426 396.86L401.98 429.488L389.212 432.049L366.626 403.702L384.426 396.86Z" fill="url(#paint4_linear_214_22913)"/>
<mask id="mask1_214_22913" style="mask-type:luminance" maskUnits="userSpaceOnUse" x="366" y="396" width="36" height="37">
<path d="M384.425 396.862L401.98 429.49L389.212 432.051L366.626 403.704L384.425 396.862Z" fill="white"/>
</mask>
<g mask="url(#mask1_214_22913)">
<path opacity="0.4" d="M370.489 423.619C384.019 419.515 382.08 406.864 389.006 402.453C395.931 398.042 362.233 406.232 362.233 406.232L362.078 412.242" fill="#ED707B"/>
</g>
<path d="M384.426 396.86L401.98 429.488L389.212 432.049L366.626 403.702L384.426 396.86Z" stroke="#190000" stroke-width="0.226102" stroke-linecap="round" stroke-linejoin="round"/>
<path d="M389.005 402.452C389.005 402.452 368.968 416.828 361.357 418.588L337.143 369.126L298.431 401.963C294.748 405.012 290.512 407.11 286.024 408.109C281.536 409.108 276.908 408.983 272.468 407.743C268.685 406.718 265.108 404.901 261.924 402.387C258.535 399.695 255.878 395.996 254.252 391.706L245.161 367.76L276.493 351.164L282.337 363.351L326.353 336.341C338.533 327.733 351.669 327.504 362.038 346.239L389.005 402.452Z" fill="#37566B"/>
<path d="M388.963 432.312L396.701 418.072C396.701 418.072 405.643 432.005 418.94 423.488C429.966 416.424 433.094 422.439 433.094 422.439L403.838 444.228C402.208 445.35 400.251 445.707 398.389 445.223C396.527 444.739 394.909 443.452 393.884 441.64L388.963 432.312Z" fill="#5A4132"/>
<path d="M248.783 391.76C248.783 391.76 250.179 399.53 253.914 401.275C257.649 403.02 274.52 373.771 273.868 372.038C273.215 370.305 248.783 391.76 248.783 391.76Z" fill="url(#paint5_linear_214_22913)"/>
<path d="M278.477 316.888C283.695 324.535 287.645 335.313 280.395 346.207C266.885 366.505 285.998 352.731 285.175 357.299C283.766 365.121 286.074 366.393 286.074 366.393C286.074 366.393 255.622 398.964 247.104 393.586C216.653 374.361 238.786 305.643 254.386 302.83L268.526 306.016" fill="#00D98B"/>
<path d="M183.277 257.915L181.464 272.378L186.69 275.962L180.807 277.612L177.598 303.203C214.508 311.615 211.347 294.81 229.281 300.502C247.215 306.195 232.761 279.482 248.099 281.66L252.606 274.679C226.844 264.145 227.554 299.122 213.787 273.924C200.02 248.725 183.277 257.915 183.277 257.915Z" fill="url(#paint6_linear_214_22913)"/>
<mask id="mask2_214_22913" style="mask-type:luminance" maskUnits="userSpaceOnUse" x="177" y="256" width="76" height="50">
<path d="M183.278 257.916L181.464 272.379L186.69 275.964L180.808 277.614L177.599 303.205C214.508 311.616 211.347 294.811 229.281 300.504C247.215 306.196 232.761 279.483 248.1 281.662L252.607 274.68C226.845 264.147 227.555 299.124 213.788 273.925C200.021 248.727 183.278 257.916 183.278 257.916Z" fill="white"/>
</mask>
<g mask="url(#mask2_214_22913)">
<path d="M246.096 271.33C246.096 271.33 243.85 280.982 246.436 284.947C249.022 288.911 251.019 282.189 251.019 282.189L252.607 274.679L248.921 267.934" fill="url(#paint7_linear_214_22913)"/>
</g>
<path d="M273.063 294.962C271.206 300.234 268.877 305.281 266.113 310.025L253.607 301.839L261.137 288.228L273.063 294.962Z" fill="url(#paint8_linear_214_22913)"/>
<path d="M277.904 268.261C276.246 265.72 273.931 263.814 271.274 262.801C268.618 261.789 265.748 261.72 263.056 262.603C261.511 263.162 260.155 264.239 259.172 265.689C257.441 265.568 255.708 265.893 254.105 266.638C247.135 270.031 245.852 281.392 249.707 288.839C253.562 296.285 259.294 293.783 266.263 290.39C272.139 287.531 278.08 285.841 276.328 279.953C279.772 277.409 280.559 272.608 277.904 268.261Z" fill="url(#paint9_linear_214_22913)"/>
<path d="M265.404 296.647C275.768 299.878 288.521 295.553 275.019 276.057C273.126 276.696 271.115 276.757 269.194 276.233C267.273 275.71 265.511 274.62 264.089 273.078C264.136 273.163 272.454 288.441 257.264 291.637" fill="url(#paint10_linear_214_22913)"/>
<path d="M263.577 289.864C254.812 282.053 250.264 293.007 258.643 295.849L263.577 289.864Z" fill="url(#paint11_linear_214_22913)"/>
<path d="M283.817 355.981C283.817 355.981 296.472 357.209 298.858 357.326C301.244 357.443 311.908 373.478 311.908 373.478C311.908 373.478 311.172 377.83 305.45 372.9C305.45 372.9 305.161 375.299 301.813 373.078L294.703 367.682L280.867 367.436L283.817 355.981Z" fill="url(#paint12_linear_214_22913)"/>
<mask id="mask3_214_22913" style="mask-type:luminance" maskUnits="userSpaceOnUse" x="280" y="355" width="33" height="21">
<path d="M283.817 355.98C283.817 355.98 296.471 357.207 298.857 357.325C301.244 357.442 311.908 373.476 311.908 373.476C311.908 373.476 311.172 377.829 305.45 372.899C305.45 372.899 305.161 375.297 301.812 373.077L294.703 367.681L280.867 367.434L283.817 355.98Z" stroke="white" stroke-width="0.226102" stroke-linecap="round" stroke-linejoin="round"/>
</mask>
<g mask="url(#mask3_214_22913)">
<path d="M288.559 370.026C282.751 369.705 286.302 359.505 282.1 355.628C277.898 351.752 276.256 365.364 276.256 365.364L277.941 371.513" fill="#ED707B"/>
</g>
<path opacity="0.3" d="M258.575 321.794L246.927 343.812L276.401 354.956C276.401 354.956 288.245 367.978 285.226 372.668L228.433 365.567C226.711 365.352 225.059 364.721 223.62 363.729C222.181 362.738 220.998 361.415 220.173 359.875C219.347 358.335 218.904 356.623 218.882 354.888C218.86 353.154 219.259 351.447 220.046 349.916L235.545 319.734C236.854 317.185 238.628 314.908 240.776 313.021C242.841 311.206 245.405 310.049 248.148 309.695C250.891 309.341 253.693 309.804 256.204 311.028" fill="#25B380"/>
<path d="M258.679 320.845L242.435 346.489L287.123 354.056C287.123 354.056 288.856 367.769 285.772 373.103L228.585 365.702C226.851 365.478 225.192 364.783 223.75 363.678C222.308 362.573 221.126 361.091 220.308 359.359C219.489 357.627 219.058 355.698 219.051 353.737C219.043 351.776 219.461 349.843 220.267 348.104L236.154 313.817C237.496 310.921 239.304 308.329 241.486 306.171C243.583 304.097 246.178 302.761 248.946 302.331C251.714 301.9 254.534 302.394 257.055 303.749" fill="#00D98B"/>
<path d="M264.607 313.758C264.607 313.758 266.127 309.506 267.377 309.389L255.786 297.243C255.786 297.243 250.353 301.099 251.393 302.897L264.607 313.758Z" fill="white"/>
<path d="M269.786 312.781C269.786 312.781 269.425 308.961 267.011 309.051L270.088 302.414L270.869 306.456L269.786 312.781Z" fill="white"/>
<path d="M273.329 278.672C272.965 278.142 272.287 278.044 271.815 278.453C271.343 278.862 271.256 279.624 271.62 280.154L272.734 281.775C273.099 282.305 273.777 282.403 274.248 281.994C274.72 281.585 274.808 280.823 274.443 280.293L273.329 278.672Z" fill="#190000"/>
<path d="M270.368 274.582C267.699 276.691 267.95 278.392 269.696 277.195C271.441 275.999 272.112 273.203 270.368 274.582Z" fill="#190000"/>
<path d="M275.276 278.42C280.235 277.96 281.62 282.568 278.677 283.547L275.276 278.42Z" fill="url(#paint13_linear_214_22913)"/>
<path opacity="0.27" d="M269.454 291.537C271.451 291.716 273.198 290.043 273.357 287.801C273.516 285.558 272.026 283.596 270.03 283.417C268.034 283.239 266.287 284.912 266.128 287.154C265.969 289.396 267.458 291.359 269.454 291.537Z" fill="#ED707B"/>
<path d="M274.48 287.059C275.137 287.348 275.852 287.433 276.549 287.306C277.246 287.179 277.899 286.845 278.442 286.337" stroke="#BA424D" stroke-width="0.226102" stroke-linecap="round" stroke-linejoin="round"/>
<path d="M260.062 289.777C259.931 289.687 259.784 289.63 259.631 289.611C259.478 289.592 259.323 289.612 259.177 289.668C259.032 289.725 258.9 289.817 258.79 289.938C258.68 290.059 258.596 290.206 258.543 290.368C258.49 290.531 258.469 290.704 258.483 290.876C258.497 291.048 258.545 291.215 258.624 291.364C258.702 291.512 258.809 291.64 258.936 291.736C259.064 291.833 259.209 291.897 259.361 291.923" stroke="#EF7B7B" stroke-width="0.226102" stroke-miterlimit="10"/>
<path d="M188.367 290.549C189.434 289.446 190.733 288.664 192.141 288.276C193.549 287.888 195.022 287.906 196.423 288.328C199.219 289.212 201.784 290.84 203.901 293.074" stroke="#190000" stroke-width="0.226102" stroke-miterlimit="10"/>
<path d="M242.441 346.716C240.857 347.882 239.029 348.565 237.139 348.698" stroke="#34CC99" stroke-width="0.226102" stroke-miterlimit="10"/>
<path d="M187.833 448.346L192.453 479.85L220.5 485.04L192.453 490.229L187.833 521.733L183.213 490.229L155.166 485.04L183.213 479.85L187.833 448.346Z" fill="white"/>
<path d="M494.819 543.613L495.554 543.502C495.554 543.502 497.307 538.372 496.346 535.291L494.536 536.656L494.744 541.59" fill="url(#paint14_linear_214_22913)"/>
<path d="M461.581 568.156L460.94 569.723L461.147 571.478L495.554 543.501V542.024L493.745 540.181L461.581 568.156Z" fill="url(#paint15_linear_214_22913)"/>
<path d="M400.081 531.183L397.819 531.351V533.131L461.147 571.48L460.94 569.725V565.997" fill="url(#paint16_linear_214_22913)"/>
<path d="M397.818 531.352C397.818 531.352 415.465 508.988 439.22 511.784L495.554 542.025L460.939 569.725L397.818 531.352Z" fill="url(#paint17_linear_214_22913)"/>
<mask id="mask4_214_22913" style="mask-type:luminance" maskUnits="userSpaceOnUse" x="397" y="511" width="99" height="59">
<path d="M397.818 531.354C397.818 531.354 415.465 508.99 439.22 511.786L495.554 542.027L460.939 569.727L397.818 531.354Z" fill="white"/>
</mask>
<g mask="url(#mask4_214_22913)">
<path d="M407.319 529.822C402.946 529.151 461.86 564.913 460.391 567.115C458.921 569.318 472.683 559.798 467.498 555.833C462.314 551.868 446.686 546.021 446.686 546.021" fill="#3B8BE2"/>
</g>
<path d="M397.818 531.352C397.818 531.352 415.465 508.988 439.22 511.784L495.554 542.025L460.939 569.725L397.818 531.352Z" fill="url(#paint18_linear_214_22913)"/>
<path d="M486.052 540.633L495.554 542.024L496.346 535.289L479.604 527.284L486.052 540.633Z" fill="url(#paint19_linear_214_22913)"/>
<path d="M495.585 536.561L496.634 536.053C496.634 536.053 514.106 514.452 543.668 516.866L543.885 515.913L527.228 513.816L499.513 519.661L493.97 532.876L495.585 536.561Z" fill="url(#paint20_linear_214_22913)"/>
<path d="M492.839 535.162L496.346 535.289C496.346 535.289 513.455 513.116 543.885 515.912L516.594 501.999L479.604 514.748L472.478 525.082L492.839 535.162Z" fill="url(#paint21_linear_214_22913)"/>
<path d="M408.828 518.645L403.7 521.017C403.7 521.017 404.454 526.269 402.946 529.149L461.229 565.329L460.855 554.261L408.828 518.645Z" fill="white"/>
<mask id="mask5_214_22913" style="mask-type:luminance" maskUnits="userSpaceOnUse" x="402" y="518" width="60" height="48">
<path d="M460.756 564.511L403.52 528.981C404.176 527.482 404.334 525.554 404.334 524.003C404.334 523.15 404.286 522.39 404.238 521.844C404.218 521.619 404.199 521.43 404.182 521.285L408.785 519.156L460.417 554.501L460.756 564.511Z" fill="white" stroke="white" stroke-width="0.890869"/>
</mask>
<g mask="url(#mask5_214_22913)">
<path d="M400.041 522.353L423.683 536.561L399.702 523.468L400.041 522.353Z" fill="#53EAB8"/>
</g>
<path d="M408.828 518.645L403.7 521.017C403.7 521.017 404.454 526.269 402.946 529.149L461.229 565.329L460.855 554.261L408.828 518.645Z" stroke="#34CC99" stroke-width="0.160356" stroke-linecap="round" stroke-linejoin="round"/>
<path d="M530.111 508.256L538.613 514.508C538.613 514.508 514.312 511.54 496.634 536.052L494.255 541.326L487.56 533.559L487.975 527.379L499.475 511.54L512.296 509.579" fill="white"/>
<path d="M530.111 508.256L538.613 514.508C538.613 514.508 514.312 511.54 496.634 536.052L494.255 541.326L487.56 533.559L487.975 527.379L499.475 511.54L512.296 509.579" stroke="#34CC99" stroke-width="0.160356" stroke-linecap="round" stroke-linejoin="round"/>
<path d="M463.277 542.701L460.626 554.642L461.23 565.328L494.255 541.326L492.498 536.559L469.197 535.289L463.277 542.701Z" fill="white" stroke="#34CC99" stroke-width="0.160356" stroke-linecap="round" stroke-linejoin="round"/>
<path d="M445.027 506.447C445.027 506.447 421.951 493.571 403.701 521.017L460.855 554.261C460.855 554.261 472.891 536.773 492.498 536.561L445.027 506.447Z" fill="white" stroke="#34CC99" stroke-width="0.160356" stroke-linecap="round" stroke-linejoin="round"/>
<path d="M478.963 474.935C473.835 482.897 449.703 482.22 445.027 506.446L492.498 536.56C492.498 536.56 514.214 507.19 530.503 508.545L478.963 474.935Z" fill="white"/>
<mask id="mask6_214_22913" style="mask-type:luminance" maskUnits="userSpaceOnUse" x="445" y="474" width="86" height="63">
<path d="M479.083 475.544L528.946 508.06C525.206 508.174 521.279 509.708 517.466 511.966C513.098 514.554 508.829 518.123 505.084 521.722C501.336 525.323 498.102 528.965 495.804 531.705C494.656 533.076 493.74 534.222 493.112 535.026C492.798 535.428 492.556 535.744 492.391 535.961C492.391 535.961 492.39 535.962 492.39 535.963L445.523 506.233C447.886 494.498 454.907 488.769 462.035 484.984C464.393 483.732 466.738 482.704 468.942 481.738C470.123 481.22 471.264 480.72 472.344 480.213C475.214 478.866 477.671 477.462 479.083 475.544Z" fill="white" stroke="white" stroke-width="0.890869"/>
</mask>
<g mask="url(#mask6_214_22913)">
<path d="M448.27 495.005C445.027 506.447 482.28 522.582 481.375 529.505C480.47 536.428 436.564 511.577 436.564 511.577V485.856" fill="#D6DCF2"/>
</g>
<path d="M478.963 474.935C473.835 482.897 449.703 482.22 445.027 506.446L492.498 536.56C492.498 536.56 514.214 507.19 530.503 508.545L478.963 474.935Z" fill="white" stroke="#34CC99" stroke-width="0.160356" stroke-linecap="round" stroke-linejoin="round"/>
<path d="M403.701 508.981C409.88 504.798 416.879 502.379 424.083 501.937C431.288 501.495 438.479 503.043 445.027 506.446L492.498 536.56C492.498 536.56 468.554 528.633 457.092 542.865L403.701 508.981Z" fill="white"/>
<mask id="mask7_214_22913" style="mask-type:luminance" maskUnits="userSpaceOnUse" x="403" y="501" width="90" height="42">
<path d="M456.998 542.277L404.518 508.972C410.493 505.064 417.208 502.805 424.111 502.381C431.226 501.945 438.331 503.472 444.805 506.832L489.769 535.356C489.428 535.275 489.062 535.192 488.672 535.108C486.229 534.583 482.85 534.032 479.106 533.93C471.741 533.729 462.864 535.263 456.998 542.277Z" fill="white" stroke="white" stroke-width="0.890869"/>
</mask>
<g mask="url(#mask7_214_22913)">
<path d="M413.858 509.221L432.875 521.173C432.875 521.173 440.236 515.332 455.182 515.16L443.418 507.319C433.695 503.823 423.163 504.501 413.858 509.221Z" fill="#D6DCF2"/>
</g>
<path d="M403.701 508.981C409.88 504.798 416.879 502.379 424.083 501.937C431.288 501.495 438.479 503.043 445.027 506.446L492.498 536.56C492.498 536.56 468.554 528.633 457.092 542.865L403.701 508.981Z" fill="white" stroke="#34CC99" stroke-width="0.160356" stroke-linecap="round" stroke-linejoin="round"/>
<path opacity="0.2" d="M436.489 525.09L437.772 525.863C437.772 525.863 447.829 517.611 456.852 517.508L455.717 516.644C455.717 516.644 444.62 518.123 436.489 525.09Z" fill="#53EAB8"/>
<path opacity="0.2" d="M441.364 528.392L442.646 529.165C442.646 529.165 452.704 520.913 461.726 520.81L460.592 519.946C460.592 519.946 449.495 521.425 441.364 528.392Z" fill="#53EAB8"/>
<path opacity="0.2" d="M445.937 531.614L447.22 532.387C447.22 532.387 457.278 524.135 466.3 524.032L465.166 523.168C465.166 523.168 454.069 524.647 445.937 531.614Z" fill="#53EAB8"/>
<path fill-rule="evenodd" clip-rule="evenodd" d="M469.158 290.911C474.005 283.905 476.891 275.103 476.891 265.544C476.891 242.695 460.401 224.172 440.059 224.172C419.718 224.172 403.228 242.695 403.228 265.544C403.228 272.713 404.851 279.455 407.707 285.334L407.5 285.33L433.788 332.769C436.509 337.681 443.578 337.662 446.274 332.736L469.158 290.911Z" fill="url(#paint22_linear_214_22913)"/>
<ellipse cx="24.0999" cy="27.0705" rx="24.0999" ry="27.0705" transform="matrix(1 0 0 -1 415.963 292.84)" fill="white"/>
<path d="M264.876 614.267L267.372 614.675C267.204 615.875 267.012 617.003 266.772 618.035H274.356V619.691C273.972 621.731 273.516 623.771 272.94 625.787L270.492 625.091C270.972 623.771 271.38 622.235 271.716 620.459H266.124C265.524 622.235 264.804 623.675 263.94 624.779L261.924 623.363C263.46 621.203 264.444 618.155 264.876 614.267ZM260.988 633.083C260.268 631.979 259.548 630.899 258.804 629.843C257.46 632.435 255.852 634.499 253.956 636.035L252.708 633.779C254.604 632.387 256.14 630.395 257.316 627.803C255.972 626.051 254.58 624.347 253.092 622.667L254.748 621.083C255.828 622.163 257.028 623.531 258.324 625.163C258.852 623.435 259.284 621.563 259.62 619.523H253.14V617.099H262.068V619.403C261.54 622.331 260.82 624.947 259.956 627.251C260.868 628.475 261.804 629.795 262.812 631.235L260.988 633.083ZM267.084 621.779H269.556C269.556 623.435 269.46 624.947 269.268 626.339C270.42 629.891 272.364 632.747 275.148 634.883L273.468 636.851C271.308 634.955 269.652 632.675 268.452 630.011C267.588 632.771 265.596 635.051 262.5 636.851L260.916 634.907C263.556 633.323 265.284 631.427 266.1 629.195C266.724 627.275 267.06 624.803 267.084 621.779ZM279.081 614.795C280.689 616.043 282.057 617.315 283.185 618.587L281.457 620.315C280.497 619.115 279.153 617.795 277.401 616.379L279.081 614.795ZM293.433 636.395C292.065 636.395 290.577 636.371 288.969 636.347C287.337 636.323 285.993 636.179 284.961 635.915C283.929 635.627 283.065 635.075 282.345 634.259C282.009 633.827 281.673 633.635 281.385 633.635C280.905 633.635 280.041 634.763 278.793 637.043L277.017 635.363C278.217 633.395 279.297 632.123 280.305 631.595V624.947H277.065V622.691H282.585V631.763C282.681 631.859 282.801 631.955 282.921 632.099C283.521 632.747 284.097 633.227 284.673 633.539C285.417 633.875 286.521 634.091 288.009 634.139C289.449 634.163 291.153 634.187 293.121 634.187C294.225 634.187 295.329 634.163 296.481 634.139C297.633 634.091 298.497 634.067 299.121 634.019L298.545 636.395H293.433ZM284.409 631.787L283.737 629.579C284.169 629.387 284.409 628.979 284.409 628.379V616.739C286.473 616.091 288.105 615.323 289.353 614.459L290.745 616.475C289.737 617.147 288.417 617.795 286.737 618.395V628.835C287.841 628.523 288.897 628.187 289.953 627.827L290.409 630.179C288.681 630.707 286.689 631.235 284.409 631.787ZM296.025 630.971H294.249L293.577 628.595L295.233 628.715C295.665 628.715 295.881 628.451 295.881 627.947V618.059H293.337V633.539H290.937V615.851H298.233V628.451C298.233 630.131 297.489 630.971 296.025 630.971ZM306.342 620.051C307.062 621.227 307.782 622.547 308.478 623.987L306.774 624.851H310.614V619.595H302.262V617.171H310.614V614.675H313.158V617.171H321.726V619.595H313.158V624.851H315.078C315.894 623.291 316.59 621.635 317.19 619.883L319.638 620.747C319.014 622.259 318.318 623.627 317.55 624.851H322.398V627.275H315.078C316.758 629.699 319.47 631.883 323.214 633.803L321.486 635.963C317.598 633.419 314.814 630.587 313.158 627.491V636.779H310.614V627.467C309.054 630.779 306.174 633.611 301.95 635.987L300.558 633.731C304.494 631.787 307.206 629.627 308.646 627.275H301.326V624.851H306.246C305.574 623.435 304.878 622.187 304.134 621.107L306.342 620.051ZM337.54 632.051V634.547C333.796 635.315 329.788 635.987 325.516 636.515L324.916 634.115C326.764 633.923 328.588 633.707 330.364 633.443V629.699H326.02V627.299H330.364V624.875H332.884V627.299H336.844V629.699H332.884V633.011C334.468 632.723 336.004 632.387 337.54 632.051ZM325.324 615.395H337.444V617.747H331.468C330.508 619.691 329.644 621.203 328.876 622.259C330.604 622.067 332.332 621.851 334.06 621.563C333.628 620.891 333.172 620.195 332.692 619.499L334.612 618.275C336.196 620.363 337.396 622.187 338.236 623.723L336.148 625.163C335.86 624.587 335.548 624.011 335.212 623.435C332.212 623.963 328.948 624.395 325.444 624.755L324.892 622.523C325.324 622.475 325.636 622.379 325.876 622.283C326.548 621.731 327.532 620.219 328.78 617.747H325.324V615.395ZM343.66 636.587H340.084L339.532 634.163C340.684 634.259 341.764 634.307 342.796 634.307C343.348 634.307 343.636 633.995 343.636 633.419V614.675H346.18V634.067C346.18 635.747 345.34 636.587 343.66 636.587ZM339.028 616.835H341.452V631.499H339.028V616.835ZM365.161 614.555C365.497 615.467 365.857 616.523 366.193 617.675H370.657V620.123H360.841V625.019C360.745 629.915 359.665 633.851 357.601 636.827L355.609 635.051C357.337 632.651 358.225 629.291 358.321 625.019V617.675H363.649C363.313 616.715 362.953 615.803 362.569 614.987L365.161 614.555ZM356.665 615.707V632.915H351.913V634.691H349.465V615.707H356.665ZM351.913 630.515H354.241V625.283H351.913V630.515ZM351.913 622.955H354.241V618.107H351.913V622.955ZM373.511 615.347H383.351V626.363H379.535V628.571H383.519V630.923H379.535V633.251C381.071 633.059 382.487 632.867 383.831 632.651V634.955C380.711 635.507 377.159 635.963 373.175 636.323L372.839 633.899C374.327 633.779 375.743 633.659 377.111 633.515V630.923H373.415V628.571H377.111V626.363H373.511V615.347ZM381.071 624.131V621.947H379.511V624.131H381.071ZM377.279 624.131V621.947H375.815V624.131H377.279ZM375.815 619.835H377.279V617.603H375.815V619.835ZM379.511 617.603V619.835H381.071V617.603H379.511ZM387.551 618.179C388.151 618.875 388.703 619.547 389.207 620.195C389.975 619.427 390.671 618.611 391.343 617.699H384.215V615.347H394.247V617.339C393.095 619.139 391.871 620.675 390.527 621.971C390.719 622.235 390.887 622.499 391.055 622.739H394.631V624.755C393.863 626.579 393.047 628.067 392.183 629.267L390.287 627.779C390.863 627.035 391.391 626.147 391.895 625.139H390.191V634.067C390.191 635.723 389.399 636.563 387.839 636.563H384.863L384.335 634.211C385.271 634.307 386.159 634.379 386.999 634.379C387.479 634.379 387.743 634.067 387.743 633.467V625.139H383.975V622.739H388.127C387.359 621.707 386.447 620.627 385.415 619.475L387.551 618.179ZM403.076 627.995C402.668 628.283 402.26 628.547 401.876 628.787L400.484 626.987V636.635H398.06V620.939H403.004C402.692 620.123 402.356 619.379 401.972 618.659H397.148V616.259H406.46C406.268 615.731 406.052 615.227 405.836 614.771L408.572 614.339C408.812 614.915 409.028 615.563 409.22 616.259H418.604V618.659H413.588C413.252 619.475 412.892 620.243 412.508 620.939H417.644V633.779C417.644 635.699 416.804 636.683 415.172 636.683H412.724L412.1 634.427L414.404 634.523C414.932 634.523 415.22 634.091 415.22 633.251V627.011L413.468 628.739C413.204 628.427 412.94 628.139 412.652 627.851V634.067H403.076V627.995ZM415.22 626.723V623.147H410.732C412.46 624.371 413.972 625.571 415.22 626.723ZM410.372 623.147H405.212L406.82 624.587C405.884 625.691 404.828 626.699 403.628 627.587H412.388C411.404 626.627 410.228 625.643 408.836 624.635L410.372 623.147ZM404.948 623.147H400.484V626.579C402.26 625.595 403.748 624.443 404.948 623.147ZM410.228 631.859V629.795H405.5V631.859H410.228ZM405.572 620.939H409.796C410.18 620.195 410.516 619.427 410.852 618.659H404.708C404.996 619.379 405.284 620.123 405.572 620.939ZM435.497 627.707C435.209 627.803 434.921 627.875 434.633 627.947C434.969 629.051 435.137 630.203 435.161 631.451C435.161 633.419 434.873 634.739 434.345 635.459C433.697 636.323 432.257 636.779 430.049 636.779H429.305L428.465 634.571H429.713C431.009 634.571 431.825 634.379 432.161 634.043C432.545 633.587 432.761 632.723 432.761 631.451C432.761 631.259 432.737 631.091 432.737 630.947C430.145 632.867 426.809 634.451 422.705 635.699L421.457 633.563C426.137 632.243 429.761 630.587 432.329 628.571C432.185 628.115 432.041 627.707 431.873 627.323C429.641 628.955 426.689 630.323 423.017 631.379L421.769 629.243C425.657 628.259 428.681 627.011 430.841 625.523C430.649 625.235 430.433 624.995 430.241 624.755C430.193 624.755 430.145 624.779 430.145 624.803C428.609 625.547 426.377 626.363 423.497 627.227L422.225 625.139C424.409 624.707 426.473 624.083 428.417 623.291C428.873 623.099 429.329 622.907 429.761 622.715H424.769V620.411H438.977V622.715H433.721C433.193 623.075 432.689 623.411 432.161 623.723C432.833 624.443 433.385 625.211 433.817 626.027C435.905 625.427 437.873 624.539 439.745 623.339L441.425 625.019C440.201 625.787 438.881 626.459 437.489 627.011C438.593 629.723 440.345 631.931 442.769 633.611L440.993 635.699C438.449 633.563 436.625 630.899 435.497 627.707ZM432.521 614.435C432.761 615.035 433.001 615.707 433.241 616.451H442.217V621.011H439.721V618.755H424.001V621.011H421.529V616.451H430.697C430.457 615.875 430.217 615.347 429.953 614.867L432.521 614.435ZM444.807 618.347H447.639C447.351 617.243 447.015 616.235 446.655 615.299L449.151 614.891C449.439 615.899 449.727 617.051 450.015 618.347H452.583V620.699H444.807V618.347ZM447.351 621.683C447.735 624.371 448.071 627.491 448.383 630.995L446.391 631.475C446.103 628.307 445.719 625.283 445.287 622.355L447.351 621.683ZM452.463 631.019V633.419C450.255 634.187 447.879 634.859 445.359 635.411L444.711 632.963C446.103 632.747 447.471 632.459 448.815 632.123C449.247 628.763 449.583 625.235 449.799 621.491L452.031 621.803C451.767 625.307 451.383 628.547 450.903 631.523L452.463 631.019ZM463.383 618.971V615.587H465.759V621.155H453.807V615.587H456.207V618.971H458.535V614.651H460.983V618.971H463.383ZM453.039 622.523H466.695V624.827H460.695C460.551 625.403 460.407 625.955 460.215 626.483H466.215V634.619C466.215 636.011 465.615 636.707 464.415 636.707H463.335L462.735 634.499L463.695 634.571C463.887 634.571 464.007 634.427 464.007 634.163V628.691H462.543V636.275H460.479V628.691H459.207V636.299H457.143V628.691H455.751V636.707H453.495V626.483H457.767C457.959 625.931 458.103 625.379 458.223 624.827H453.039V622.523ZM470.244 617.171H473.484L472.884 629.387H470.844L470.244 617.171ZM471.852 630.683C472.38 630.683 472.836 630.851 473.196 631.187C473.532 631.523 473.724 631.955 473.724 632.483C473.724 633.011 473.532 633.467 473.196 633.803C472.812 634.139 472.38 634.307 471.852 634.307C471.324 634.307 470.892 634.115 470.556 633.779C470.172 633.443 470.004 633.011 470.004 632.483C470.004 631.955 470.172 631.523 470.556 631.187C470.892 630.851 471.324 630.683 471.852 630.683Z" fill="white"/>
<path d="M270.504 659.883H278.712V661.371H272.248V664.699H278.328V666.187H272.248V669.819H278.984V671.307H270.504V659.883ZM284.783 662.811C286.831 662.811 287.871 663.931 287.871 666.203V671.307H286.175V666.347C286.175 664.939 285.519 664.235 284.239 664.235C283.759 664.235 283.327 664.395 282.975 664.747C282.591 665.131 282.351 665.659 282.287 666.331V671.307H280.591V663.035H282.287V664.059C282.607 663.643 282.975 663.339 283.391 663.131C283.807 662.907 284.271 662.811 284.783 662.811ZM291.055 659.723C291.391 659.723 291.679 659.819 291.903 660.043C292.127 660.251 292.239 660.523 292.239 660.859C292.239 661.195 292.127 661.467 291.903 661.691C291.663 661.899 291.375 662.011 291.055 662.011C290.735 662.011 290.463 661.899 290.239 661.691C289.999 661.467 289.887 661.179 289.887 660.859C289.887 660.523 289.999 660.251 290.239 660.043C290.463 659.819 290.735 659.723 291.055 659.723ZM290.207 663.035H291.903V672.107C291.903 673.675 291.055 674.475 289.391 674.475H288.607V673.083H289.247C289.887 673.083 290.207 672.731 290.207 672.043V663.035ZM298.003 662.811C299.251 662.811 300.259 663.227 301.011 664.059C301.747 664.875 302.131 665.915 302.131 667.179C302.131 668.427 301.763 669.467 301.027 670.267C300.259 671.099 299.251 671.531 298.003 671.531C296.755 671.531 295.747 671.099 294.979 670.267C294.243 669.467 293.875 668.427 293.875 667.179C293.875 665.915 294.243 664.875 294.995 664.059C295.747 663.227 296.755 662.811 298.003 662.811ZM298.003 664.203C297.219 664.203 296.611 664.507 296.179 665.131C295.795 665.659 295.619 666.347 295.619 667.179C295.619 668.011 295.795 668.683 296.179 669.211C296.611 669.819 297.219 670.139 298.003 670.139C298.787 670.139 299.395 669.819 299.843 669.211C300.227 668.667 300.419 667.995 300.419 667.179C300.419 666.347 300.227 665.659 299.843 665.131C299.395 664.507 298.787 664.203 298.003 664.203ZM302.86 663.035H304.7L306.972 669.067L309.148 663.035H311.004L306.508 674.475H304.7L306.14 671.115L302.86 663.035ZM316.479 663.035H318.319L320.591 669.067L322.767 663.035H324.623L320.127 674.475H318.319L319.759 671.115L316.479 663.035ZM329.462 662.811C330.71 662.811 331.718 663.227 332.47 664.059C333.206 664.875 333.59 665.915 333.59 667.179C333.59 668.427 333.222 669.467 332.486 670.267C331.718 671.099 330.71 671.531 329.462 671.531C328.214 671.531 327.206 671.099 326.438 670.267C325.702 669.467 325.334 668.427 325.334 667.179C325.334 665.915 325.702 664.875 326.454 664.059C327.206 663.227 328.214 662.811 329.462 662.811ZM329.462 664.203C328.678 664.203 328.07 664.507 327.638 665.131C327.254 665.659 327.078 666.347 327.078 667.179C327.078 668.011 327.254 668.683 327.638 669.211C328.07 669.819 328.678 670.139 329.462 670.139C330.246 670.139 330.854 669.819 331.302 669.211C331.686 668.667 331.878 667.995 331.878 667.179C331.878 666.347 331.686 665.659 331.302 665.131C330.854 664.507 330.246 664.203 329.462 664.203ZM335.198 663.035H336.894V668.075C336.894 668.779 337.038 669.291 337.342 669.611C337.63 669.931 338.11 670.107 338.766 670.107C339.214 670.107 339.614 669.915 339.998 669.563C340.382 669.195 340.654 668.699 340.798 668.091V663.035H342.494V671.307H340.798V670.187C340.094 671.083 339.23 671.531 338.19 671.531C336.19 671.531 335.198 670.411 335.198 668.187V663.035ZM348.27 662.811C348.686 662.811 349.054 662.875 349.342 663.019V664.715C348.926 664.587 348.526 664.539 348.142 664.539C347.63 664.539 347.166 664.747 346.766 665.163C346.334 665.611 346.126 666.203 346.126 666.923V671.307H344.43V663.035H346.126V664.283C346.334 663.835 346.606 663.499 346.926 663.275C347.31 662.955 347.758 662.811 348.27 662.811ZM363.543 660.363V663.035H365.431V664.443H363.543V669.243C363.543 669.467 363.591 669.627 363.687 669.739C363.783 669.835 363.927 669.899 364.135 669.899H365.223V671.307H363.863C363.159 671.307 362.631 671.115 362.311 670.747C361.991 670.395 361.847 669.899 361.847 669.243V664.443H360.311V663.035H361.847V661.067L363.543 660.363ZM367.994 659.723C368.33 659.723 368.618 659.819 368.842 660.043C369.066 660.251 369.178 660.523 369.178 660.859C369.178 661.195 369.05 661.467 368.826 661.691C368.602 661.899 368.314 662.011 367.994 662.011C367.658 662.011 367.386 661.899 367.162 661.691C366.938 661.467 366.826 661.179 366.826 660.859C366.826 660.523 366.938 660.251 367.162 660.043C367.386 659.819 367.658 659.723 367.994 659.723ZM367.146 663.035H368.842V671.307H367.146V663.035ZM375.103 662.811C376.319 662.811 377.199 663.275 377.711 664.203C378.079 663.691 378.479 663.323 378.895 663.115C379.279 662.907 379.743 662.811 380.303 662.811C381.151 662.811 381.855 663.083 382.415 663.659C382.959 664.219 383.247 664.955 383.247 665.883V671.307H381.551V666.171C381.551 665.499 381.407 665.003 381.119 664.699C380.831 664.379 380.351 664.235 379.711 664.235C379.231 664.235 378.847 664.411 378.527 664.763C378.207 665.115 378.047 665.611 378.047 666.219V671.307H376.351V666.187C376.351 664.875 375.775 664.235 374.655 664.235C374.111 664.235 373.663 664.443 373.343 664.859C372.991 665.259 372.831 665.755 372.831 666.331V671.307H371.135V663.035H372.831V663.947C373.503 663.179 374.271 662.811 375.103 662.811ZM388.668 662.811C390.012 662.811 391.052 663.259 391.756 664.187C392.396 665.019 392.732 666.171 392.748 667.643H386.476C386.54 668.443 386.748 669.067 387.132 669.499C387.516 669.915 388.044 670.139 388.716 670.139C389.308 670.139 389.788 669.995 390.156 669.723C390.444 669.499 390.684 669.131 390.908 668.651H392.604C392.412 669.419 392.044 670.075 391.468 670.587C390.748 671.211 389.836 671.531 388.732 671.531C387.516 671.531 386.54 671.147 385.836 670.395C385.068 669.595 384.684 668.523 384.684 667.163C384.684 665.931 385.036 664.907 385.772 664.075C386.476 663.227 387.452 662.811 388.668 662.811ZM388.716 664.203C388.076 664.203 387.58 664.379 387.196 664.763C386.844 665.131 386.604 665.659 386.508 666.363H390.972C390.812 664.923 390.06 664.203 388.716 664.203ZM398.638 663.035H400.51L402.254 669.291L403.95 663.035H405.518L407.214 669.291L408.958 663.035H410.83L408.03 671.307H406.462L404.734 665.115L403.006 671.307H401.438L398.638 663.035ZM413.075 659.723C413.411 659.723 413.699 659.819 413.923 660.043C414.147 660.251 414.259 660.523 414.259 660.859C414.259 661.195 414.131 661.467 413.907 661.691C413.683 661.899 413.395 662.011 413.075 662.011C412.739 662.011 412.467 661.899 412.243 661.691C412.019 661.467 411.907 661.179 411.907 660.859C411.907 660.523 412.019 660.251 412.243 660.043C412.467 659.819 412.739 659.723 413.075 659.723ZM412.227 663.035H413.923V671.307H412.227V663.035ZM418.728 660.363V663.035H420.616V664.443H418.728V669.243C418.728 669.467 418.776 669.627 418.872 669.739C418.968 669.835 419.112 669.899 419.32 669.899H420.408V671.307H419.048C418.344 671.307 417.816 671.115 417.496 670.747C417.176 670.395 417.032 669.899 417.032 669.243V664.443H415.496V663.035H417.032V661.067L418.728 660.363ZM421.979 659.659H423.675V664.203C423.979 663.723 424.363 663.355 424.827 663.131C425.243 662.907 425.707 662.811 426.235 662.811C427.227 662.811 427.979 663.099 428.491 663.691C428.971 664.251 429.211 665.083 429.211 666.171V671.307H427.515V666.459C427.515 665.723 427.355 665.179 427.067 664.795C426.747 664.395 426.251 664.203 425.611 664.203C425.035 664.203 424.571 664.427 424.219 664.891C423.851 665.355 423.675 665.947 423.675 666.667V671.307H421.979V659.659ZM436.459 663.035H438.155V668.075C438.155 668.779 438.299 669.291 438.603 669.611C438.891 669.931 439.371 670.107 440.027 670.107C440.475 670.107 440.875 669.915 441.259 669.563C441.643 669.195 441.915 668.699 442.059 668.091V663.035H443.755V671.307H442.059V670.187C441.355 671.083 440.491 671.531 439.451 671.531C437.451 671.531 436.459 670.411 436.459 668.187V663.035ZM448.778 662.811C450.922 662.811 452.106 663.675 452.298 665.419H450.65C450.522 664.971 450.33 664.667 450.058 664.491C449.77 664.299 449.322 664.203 448.746 664.203C448.234 664.203 447.85 664.267 447.594 664.427C447.29 664.587 447.146 664.843 447.146 665.163C447.146 665.451 447.37 665.691 447.818 665.899C448.106 666.027 448.65 666.187 449.482 666.395C450.426 666.619 451.13 666.891 451.578 667.179C452.234 667.595 452.57 668.171 452.57 668.907C452.57 670.651 451.338 671.531 448.89 671.531C446.618 671.531 445.402 670.555 445.21 668.635H446.874C446.97 669.195 447.178 669.595 447.466 669.819C447.754 670.027 448.202 670.139 448.842 670.139C450.154 670.139 450.826 669.755 450.826 669.019C450.826 668.619 450.57 668.299 450.09 668.075C449.834 667.947 449.274 667.787 448.426 667.595C447.45 667.371 446.762 667.131 446.378 666.875C445.738 666.475 445.418 665.915 445.418 665.211C445.418 664.459 445.722 663.867 446.346 663.451C446.97 663.019 447.786 662.811 448.778 662.811ZM454.704 659.883H456.704L456.336 668.075H455.072L454.704 659.883ZM455.696 669.019C456.032 669.019 456.32 669.115 456.544 669.339C456.768 669.547 456.88 669.819 456.88 670.155C456.88 670.491 456.768 670.763 456.544 670.987C456.304 671.195 456.016 671.307 455.696 671.307C455.376 671.307 455.104 671.195 454.88 670.971C454.64 670.747 454.528 670.475 454.528 670.155C454.528 669.819 454.64 669.547 454.88 669.339C455.104 669.115 455.376 669.019 455.696 669.019Z" fill="white"/>
<path d="M558.397 196.652L560.418 210.435L572.688 212.706L560.418 214.976L558.397 228.759L556.376 214.976L544.105 212.706L556.376 210.435L558.397 196.652Z" fill="white"/>
<path d="M528.792 205.826L531.68 225.516L549.209 228.76L531.68 232.003L528.792 251.693L525.905 232.003L508.375 228.76L525.905 225.516L528.792 205.826Z" fill="white"/>
<path d="M586.98 571.613L589.867 591.303L607.397 594.547L589.867 597.79L586.98 617.48L584.093 597.79L566.563 594.547L584.093 591.303L586.98 571.613Z" fill="white"/>
<defs>
<filter id="filter0_d_214_22913" x="253.587" y="298.258" width="313.92" height="267.522" filterUnits="userSpaceOnUse" color-interpolation-filters="sRGB">
<feFlood flood-opacity="0" result="BackgroundImageFix"/>
<feColorMatrix in="SourceAlpha" type="matrix" values="0 0 0 0 0 0 0 0 0 0 0 0 0 0 0 0 0 0 127 0" result="hardAlpha"/>
<feOffset dy="3.56347"/>
<feGaussianBlur stdDeviation="8.90869"/>
<feComposite in2="hardAlpha" operator="out"/>
<feColorMatrix type="matrix" values="0 0 0 0 1 0 0 0 0 1 0 0 0 0 1 0 0 0 0.25 0"/>
<feBlend mode="normal" in2="BackgroundImageFix" result="effect1_dropShadow_214_22913"/>
<feBlend mode="normal" in="SourceGraphic" in2="effect1_dropShadow_214_22913" result="shape"/>
</filter>
<linearGradient id="paint0_linear_214_22913" x1="627.259" y1="175.537" x2="314.402" y2="512.53" gradientUnits="userSpaceOnUse">
<stop offset="0.216513" stop-color="#00EFEF"/>
<stop offset="1" stop-color="#0AFF89"/>
</linearGradient>
<linearGradient id="paint1_linear_214_22913" x1="410.949" y1="307.535" x2="408.114" y2="635.412" gradientUnits="userSpaceOnUse">
<stop stop-color="white"/>
<stop offset="1" stop-color="#0AF481"/>
</linearGradient>
<linearGradient id="paint2_linear_214_22913" x1="341.405" y1="300.12" x2="376.341" y2="273.606" gradientUnits="userSpaceOnUse">
<stop stop-color="#FFC4A8"/>
<stop offset="0.9987" stop-color="#FFF0E2"/>
</linearGradient>
<linearGradient id="paint3_linear_214_22913" x1="382.18" y1="395.369" x2="399.537" y2="382.195" gradientUnits="userSpaceOnUse">
<stop stop-color="#FFC4A8"/>
<stop offset="0.9987" stop-color="#FFF0E2"/>
</linearGradient>
<linearGradient id="paint4_linear_214_22913" x1="379.733" y1="420.97" x2="394.322" y2="409.898" gradientUnits="userSpaceOnUse">
<stop stop-color="#FFC4A8"/>
<stop offset="0.9987" stop-color="#FFF0E2"/>
</linearGradient>
<linearGradient id="paint5_linear_214_22913" x1="250.609" y1="397.856" x2="277.805" y2="377.216" gradientUnits="userSpaceOnUse">
<stop stop-color="white"/>
<stop offset="0.9987" stop-color="white"/>
</linearGradient>
<linearGradient id="paint6_linear_214_22913" x1="180.702" y1="307.293" x2="242.032" y2="260.746" gradientUnits="userSpaceOnUse">
<stop stop-color="#493C2C"/>
<stop offset="0.9987" stop-color="#914D44"/>
</linearGradient>
<linearGradient id="paint7_linear_214_22913" x1="243.947" y1="281.691" x2="253.728" y2="274.268" gradientUnits="userSpaceOnUse">
<stop stop-color="#FEA6EE"/>
<stop offset="1" stop-color="#FFE7F3"/>
</linearGradient>
<linearGradient id="paint8_linear_214_22913" x1="262.368" y1="301.017" x2="275.176" y2="279.392" gradientUnits="userSpaceOnUse">
<stop stop-color="#FFC4A8"/>
<stop offset="0.9987" stop-color="#FFF0E2"/>
</linearGradient>
<linearGradient id="paint9_linear_214_22913" x1="250.071" y1="289.666" x2="278.09" y2="268.401" gradientUnits="userSpaceOnUse">
<stop stop-color="#493C2C"/>
<stop offset="0.9987" stop-color="#914D44"/>
</linearGradient>
<linearGradient id="paint10_linear_214_22913" x1="263.468" y1="301.667" x2="276.29" y2="265.869" gradientUnits="userSpaceOnUse">
<stop stop-color="#FFC4A8"/>
<stop offset="0.9987" stop-color="#FFF0E2"/>
</linearGradient>
<linearGradient id="paint11_linear_214_22913" x1="255.549" y1="296.977" x2="268.358" y2="275.352" gradientUnits="userSpaceOnUse">
<stop stop-color="#FFC4A8"/>
<stop offset="0.9987" stop-color="#FFF0E2"/>
</linearGradient>
<linearGradient id="paint12_linear_214_22913" x1="286.967" y1="375.472" x2="304.06" y2="362.499" gradientUnits="userSpaceOnUse">
<stop stop-color="#FFC4A8"/>
<stop offset="0.9987" stop-color="#FFF0E2"/>
</linearGradient>
<linearGradient id="paint13_linear_214_22913" x1="266.76" y1="303.617" x2="279.568" y2="281.992" gradientUnits="userSpaceOnUse">
<stop stop-color="#FFC4A8"/>
<stop offset="0.9987" stop-color="#FFDECA"/>
</linearGradient>
<linearGradient id="paint14_linear_214_22913" x1="494.654" y1="544.134" x2="498.184" y2="543.418" gradientUnits="userSpaceOnUse">
<stop offset="0.0404" stop-color="#4CF09F"/>
<stop offset="1" stop-color="#34CC99"/>
</linearGradient>
<linearGradient id="paint15_linear_214_22913" x1="462.891" y1="573.437" x2="496.714" y2="543.326" gradientUnits="userSpaceOnUse">
<stop offset="0.0404" stop-color="#4CF09F"/>
<stop offset="1" stop-color="#34CC99"/>
</linearGradient>
<linearGradient id="paint16_linear_214_22913" x1="401.388" y1="574.002" x2="444.048" y2="520.038" gradientUnits="userSpaceOnUse">
<stop offset="0.0404" stop-color="#4CF09F"/>
<stop offset="1" stop-color="#34CC99"/>
</linearGradient>
<linearGradient id="paint17_linear_214_22913" x1="424.616" y1="561.452" x2="473.837" y2="517.632" gradientUnits="userSpaceOnUse">
<stop offset="0.0013" stop-color="#4DC3FF"/>
<stop offset="0.9721" stop-color="#A3E0F8"/>
</linearGradient>
<linearGradient id="paint18_linear_214_22913" x1="377.143" y1="263.685" x2="291.353" y2="579.602" gradientUnits="userSpaceOnUse">
<stop stop-color="#00DFFF"/>
<stop offset="1" stop-color="#77F89B"/>
</linearGradient>
<linearGradient id="paint19_linear_214_22913" x1="476.062" y1="464.494" x2="446.343" y2="538.492" gradientUnits="userSpaceOnUse">
<stop stop-color="#00DFFF"/>
<stop offset="1" stop-color="#77F89B"/>
</linearGradient>
<linearGradient id="paint20_linear_214_22913" x1="496.784" y1="537.984" x2="518.001" y2="500.504" gradientUnits="userSpaceOnUse">
<stop offset="0.0404" stop-color="#4CF09F"/>
<stop offset="1" stop-color="#34CC99"/>
</linearGradient>
<linearGradient id="paint21_linear_214_22913" x1="457.372" y1="360.184" x2="417.883" y2="545.872" gradientUnits="userSpaceOnUse">
<stop stop-color="#00DFFF"/>
<stop offset="1" stop-color="#77F89B"/>
</linearGradient>
<linearGradient id="paint22_linear_214_22913" x1="447.378" y1="234.848" x2="428.975" y2="346.712" gradientUnits="userSpaceOnUse">
<stop stop-color="#2DFF97"/>
<stop offset="1" stop-color="white"/>
</linearGradient>
</defs>
</svg>
