<svg width="54" height="58" viewBox="0 0 54 58" fill="none" xmlns="http://www.w3.org/2000/svg">
<path d="M54 27C54 41.9117 41.9117 54 27 54C12.0883 54 0 41.9117 0 27C0 12.0883 12.0883 0 27 0C41.9117 0 54 12.0883 54 27Z" fill="#F6F7FB"/>
<g filter="url(#filter0_ii_2407_31088)">
<path fill-rule="evenodd" clip-rule="evenodd" d="M33.557 16H33.5307H19C16.7947 16 15 17.7947 15 20V24V26.6667V36C15 38.2053 16.7947 40 19 40H35C37.2053 40 39 38.2053 39 36V26.6667V24V21.301L33.557 16Z" fill="#7DA2FF"/>
</g>
<g filter="url(#filter1_di_2407_31088)">
<path d="M31.0214 25.166H19.9144C19.4081 25.166 18.9976 25.5765 18.9976 26.0829C18.9976 26.5893 19.4081 26.9998 19.9145 26.9998H31.0214C31.5277 26.9998 31.9382 26.5893 31.9382 26.0829C31.9382 25.5765 31.5277 25.166 31.0214 25.166Z" fill="white"/>
</g>
<g filter="url(#filter2_di_2407_31088)">
<path d="M26.4643 21.5884H19.8555C19.3817 21.5884 18.9976 21.9725 18.9976 22.4463C18.9976 22.9202 19.3817 23.3043 19.8555 23.3043H26.4643C26.9381 23.3043 27.3222 22.9202 27.3222 22.4463C27.3222 21.9725 26.9381 21.5884 26.4643 21.5884Z" fill="white"/>
</g>
<g filter="url(#filter3_di_2407_31088)">
<path d="M35.002 30.6651C35.002 29.9291 34.4888 29.3317 33.8589 29.3317H20.1407C19.5108 29.3317 18.9976 29.9291 18.9976 30.6651L18.9976 33.6338C18.9976 34.4622 19.6691 35.1338 20.4976 35.1338H33.502C34.3305 35.1338 35.002 34.4622 35.002 33.6338V30.6651Z" fill="white"/>
</g>
<g filter="url(#filter4_f_2407_31088)">
<ellipse cx="27.5" cy="37.5" rx="11.5" ry="2.5" fill="#7CA0FD"/>
</g>
<path d="M35.5425 21.3009H38.9999L33.5425 15.9858V19.3009C33.5425 20.4054 34.4379 21.3009 35.5425 21.3009Z" fill="#B9CDFA"/>
<defs>
<filter id="filter0_ii_2407_31088" x="15" y="9.88145" width="24" height="30.1185" filterUnits="userSpaceOnUse" color-interpolation-filters="sRGB">
<feFlood flood-opacity="0" result="BackgroundImageFix"/>
<feBlend mode="normal" in="SourceGraphic" in2="BackgroundImageFix" result="shape"/>
<feColorMatrix in="SourceAlpha" type="matrix" values="0 0 0 0 0 0 0 0 0 0 0 0 0 0 0 0 0 0 127 0" result="hardAlpha"/>
<feOffset dy="-6.11855"/>
<feGaussianBlur stdDeviation="3.82409"/>
<feComposite in2="hardAlpha" operator="arithmetic" k2="-1" k3="1"/>
<feColorMatrix type="matrix" values="0 0 0 0 0.0716667 0 0 0 0 0.136167 0 0 0 0 0.716667 0 0 0 0.35 0"/>
<feBlend mode="normal" in2="shape" result="effect1_innerShadow_2407_31088"/>
<feColorMatrix in="SourceAlpha" type="matrix" values="0 0 0 0 0 0 0 0 0 0 0 0 0 0 0 0 0 0 127 0" result="hardAlpha"/>
<feOffset dy="-2.29445"/>
<feGaussianBlur stdDeviation="1.52964"/>
<feComposite in2="hardAlpha" operator="arithmetic" k2="-1" k3="1"/>
<feColorMatrix type="matrix" values="0 0 0 0 1 0 0 0 0 1 0 0 0 0 1 0 0 0 0.25 0"/>
<feBlend mode="normal" in2="effect1_innerShadow_2407_31088" result="effect2_innerShadow_2407_31088"/>
</filter>
<filter id="filter1_di_2407_31088" x="4.48514" y="18.5695" width="41.9658" height="30.8588" filterUnits="userSpaceOnUse" color-interpolation-filters="sRGB">
<feFlood flood-opacity="0" result="BackgroundImageFix"/>
<feColorMatrix in="SourceAlpha" type="matrix" values="0 0 0 0 0 0 0 0 0 0 0 0 0 0 0 0 0 0 127 0" result="hardAlpha"/>
<feOffset dy="7.91587"/>
<feGaussianBlur stdDeviation="7.25621"/>
<feColorMatrix type="matrix" values="0 0 0 0 0 0 0 0 0 0.0450001 0 0 0 0 0.45 0 0 0 0.25 0"/>
<feBlend mode="normal" in2="BackgroundImageFix" result="effect1_dropShadow_2407_31088"/>
<feBlend mode="normal" in="SourceGraphic" in2="effect1_dropShadow_2407_31088" result="shape"/>
<feColorMatrix in="SourceAlpha" type="matrix" values="0 0 0 0 0 0 0 0 0 0 0 0 0 0 0 0 0 0 127 0" result="hardAlpha"/>
<feOffset dy="-0.5"/>
<feGaussianBlur stdDeviation="1"/>
<feComposite in2="hardAlpha" operator="arithmetic" k2="-1" k3="1"/>
<feColorMatrix type="matrix" values="0 0 0 0 0.338819 0 0 0 0 0.521617 0 0 0 0 0.991667 0 0 0 0.5 0"/>
<feBlend mode="normal" in2="shape" result="effect2_innerShadow_2407_31088"/>
</filter>
<filter id="filter2_di_2407_31088" x="4.48514" y="14.9918" width="37.3496" height="30.7407" filterUnits="userSpaceOnUse" color-interpolation-filters="sRGB">
<feFlood flood-opacity="0" result="BackgroundImageFix"/>
<feColorMatrix in="SourceAlpha" type="matrix" values="0 0 0 0 0 0 0 0 0 0 0 0 0 0 0 0 0 0 127 0" result="hardAlpha"/>
<feOffset dy="7.91587"/>
<feGaussianBlur stdDeviation="7.25621"/>
<feColorMatrix type="matrix" values="0 0 0 0 0 0 0 0 0 0.0450001 0 0 0 0 0.45 0 0 0 0.25 0"/>
<feBlend mode="normal" in2="BackgroundImageFix" result="effect1_dropShadow_2407_31088"/>
<feBlend mode="normal" in="SourceGraphic" in2="effect1_dropShadow_2407_31088" result="shape"/>
<feColorMatrix in="SourceAlpha" type="matrix" values="0 0 0 0 0 0 0 0 0 0 0 0 0 0 0 0 0 0 127 0" result="hardAlpha"/>
<feOffset dy="-0.5"/>
<feGaussianBlur stdDeviation="1"/>
<feComposite in2="hardAlpha" operator="arithmetic" k2="-1" k3="1"/>
<feColorMatrix type="matrix" values="0 0 0 0 0.338819 0 0 0 0 0.521617 0 0 0 0 0.991667 0 0 0 0.5 0"/>
<feBlend mode="normal" in2="shape" result="effect2_innerShadow_2407_31088"/>
</filter>
<filter id="filter3_di_2407_31088" x="4.48514" y="22.735" width="45.0292" height="34.8271" filterUnits="userSpaceOnUse" color-interpolation-filters="sRGB">
<feFlood flood-opacity="0" result="BackgroundImageFix"/>
<feColorMatrix in="SourceAlpha" type="matrix" values="0 0 0 0 0 0 0 0 0 0 0 0 0 0 0 0 0 0 127 0" result="hardAlpha"/>
<feOffset dy="7.91587"/>
<feGaussianBlur stdDeviation="7.25621"/>
<feColorMatrix type="matrix" values="0 0 0 0 0 0 0 0 0 0.0450001 0 0 0 0 0.45 0 0 0 0.25 0"/>
<feBlend mode="normal" in2="BackgroundImageFix" result="effect1_dropShadow_2407_31088"/>
<feBlend mode="normal" in="SourceGraphic" in2="effect1_dropShadow_2407_31088" result="shape"/>
<feColorMatrix in="SourceAlpha" type="matrix" values="0 0 0 0 0 0 0 0 0 0 0 0 0 0 0 0 0 0 127 0" result="hardAlpha"/>
<feOffset dy="-2"/>
<feGaussianBlur stdDeviation="3.29828"/>
<feComposite in2="hardAlpha" operator="arithmetic" k2="-1" k3="1"/>
<feColorMatrix type="matrix" values="0 0 0 0 0.690196 0 0 0 0 0.776941 0 0 0 0 1 0 0 0 0.6 0"/>
<feBlend mode="normal" in2="shape" result="effect2_innerShadow_2407_31088"/>
</filter>
<filter id="filter4_f_2407_31088" x="4" y="23" width="47" height="29" filterUnits="userSpaceOnUse" color-interpolation-filters="sRGB">
<feFlood flood-opacity="0" result="BackgroundImageFix"/>
<feBlend mode="normal" in="SourceGraphic" in2="BackgroundImageFix" result="shape"/>
<feGaussianBlur stdDeviation="6" result="effect1_foregroundBlur_2407_31088"/>
</filter>
</defs>
</svg>
