<svg width="30" height="30" viewBox="0 0 30 30" fill="none" xmlns="http://www.w3.org/2000/svg">
<rect x="1" y="1" width="28" height="28" rx="14" fill="#F2F3F5"/>
<rect x="1" y="1" width="28" height="28" rx="14" stroke="white" stroke-width="2"/>
<path fill-rule="evenodd" clip-rule="evenodd" d="M12.7682 10.8455C12.8741 10.6338 13.0905 10.5 13.3273 10.5H16.6727C16.9095 10.5 17.1259 10.6338 17.2318 10.8455L17.559 11.5H19.25C19.6642 11.5 20 11.8358 20 12.25V18.75C20 19.1642 19.6642 19.5 19.25 19.5H10.75C10.3358 19.5 10 19.1642 10 18.75V12.25C10 11.8358 10.3358 11.5 10.75 11.5H12.441L12.7682 10.8455ZM11 12.5V18.5H19V12.5H11ZM15 14.25C14.3096 14.25 13.75 14.8096 13.75 15.5C13.75 16.1904 14.3096 16.75 15 16.75C15.6904 16.75 16.25 16.1904 16.25 15.5C16.25 14.8096 15.6904 14.25 15 14.25ZM12.75 15.5C12.75 14.2574 13.7574 13.25 15 13.25C16.2426 13.25 17.25 14.2574 17.25 15.5C17.25 16.7426 16.2426 17.75 15 17.75C13.7574 17.75 12.75 16.7426 12.75 15.5Z" fill="#165DFF"/>
</svg>
