<svg width="200" height="200" viewBox="0 0 200 200" fill="none" xmlns="http://www.w3.org/2000/svg">
<path d="M127.148 106.875H117.461C100.664 106.875 87.0508 93.2617 87.0508 76.4648V59.1602C87.0508 40.9961 101.777 26.2695 119.941 26.2695H124.062C142.383 26.2695 157.227 41.1133 157.227 59.4336V76.7969C157.227 93.418 143.77 106.875 127.148 106.875Z" fill="#386BF3"/>
<path d="M100 29.1602C107.148 29.1602 113.867 31.9336 118.926 36.9922C123.984 42.0508 126.758 48.7695 126.758 55.918V73.2031C126.758 80.3516 123.984 87.0703 118.926 92.1289C113.867 97.1875 107.148 99.9609 100 99.9609C92.8516 99.9609 86.1328 97.1875 81.0742 92.1289C76.0156 87.0703 73.2422 80.3516 73.2422 73.2031V55.918C73.2422 48.7695 76.0156 42.0508 81.0742 36.9922C86.1328 31.9531 92.8516 29.1602 100 29.1602ZM100 15.8984C77.8906 15.8984 59.9805 33.8086 59.9805 55.918V73.2031C59.9805 95.3125 77.8906 113.223 100 113.223C122.109 113.223 140.02 95.3125 140.02 73.2031V55.918C140.02 33.8086 122.109 15.8984 100 15.8984ZM142.656 136.406C147.266 136.406 151.641 138.223 154.941 141.523C158.242 144.824 160.059 149.199 160.059 153.809V168.262C160.059 169.648 158.887 170.82 157.5 170.82H42.5C41.1133 170.82 39.9414 169.648 39.9414 168.262V153.809C39.9414 149.199 41.7578 144.824 45.0586 141.523C48.3594 138.223 52.7344 136.406 57.3438 136.406H142.656ZM142.656 123.145H57.3438C40.4688 123.145 26.6602 136.953 26.6602 153.828V168.281C26.6602 176.992 33.7891 184.121 42.5 184.121H157.5C166.211 184.121 173.34 176.992 173.34 168.281V153.828C173.34 136.934 159.531 123.145 142.656 123.145Z" fill="#3D4265"/>
</svg>
