<svg width="150" height="150" viewBox="0 0 150 150" fill="none" xmlns="http://www.w3.org/2000/svg">
<path d="M42.614 31.5093H98.2687C104.519 31.5093 107.644 34.6343 107.644 40.8843V108.204C107.644 114.454 104.519 117.579 98.2687 117.579H42.614C36.364 117.579 33.239 114.454 33.239 108.204V40.8843C33.239 34.6343 36.364 31.5093 42.614 31.5093Z" fill="white"/>
<path d="M42.614 37.6079H92.4093C98.6593 37.6079 101.784 40.7329 101.784 46.9829V108.204C101.784 114.454 98.6593 117.579 92.4093 117.579H42.614C36.364 117.579 33.239 114.454 33.239 108.204V46.9829C33.239 40.7329 36.364 37.6079 42.614 37.6079Z" fill="#979797"/>
<path d="M51.6563 54.1548H83.3672C86.125 54.1548 87.5039 55.5337 87.5039 58.2915C87.5039 61.0493 86.125 62.4282 83.3672 62.4282H51.6563C48.8984 62.4282 47.5195 61.0493 47.5195 58.2915C47.5195 55.5337 48.8984 54.1548 51.6563 54.1548Z" fill="white"/>
<path d="M51.6563 73.4578H63.375C66.1328 73.4578 67.5117 74.8367 67.5117 77.5945C67.5117 80.3523 66.1328 81.7312 63.375 81.7312H51.6563C48.8984 81.7312 47.5195 80.3523 47.5195 77.5945C47.5195 74.8367 48.8984 73.4578 51.6563 73.4578Z" fill="white"/>
<path d="M51.6563 92.761H58.6875C61.4453 92.761 62.8242 94.1399 62.8242 96.8977C62.8242 99.6555 61.4453 101.034 58.6875 101.034H51.6563C48.8984 101.034 47.5195 99.6555 47.5195 96.8977C47.5195 94.1399 48.8984 92.761 51.6563 92.761Z" fill="white"/>
<path d="M72.6562 93.75C72.6562 100.588 75.3725 107.145 80.2074 111.98C85.0423 116.815 91.5999 119.531 98.4375 119.531C105.275 119.531 111.833 116.815 116.668 111.98C121.503 107.145 124.219 100.588 124.219 93.75C124.219 86.9124 121.503 80.3548 116.668 75.5199C111.833 70.685 105.275 67.9688 98.4375 67.9688C91.5999 67.9688 85.0423 70.685 80.2074 75.5199C75.3725 80.3548 72.6563 86.9124 72.6562 93.75Z" fill="#979797"/>
<path d="M98.4375 75C94.7291 75 91.104 76.0997 88.0206 78.1599C84.9371 80.2202 82.5339 83.1486 81.1148 86.5747C79.6956 90.0008 79.3243 93.7708 80.0478 97.4079C80.7712 101.045 82.557 104.386 85.1793 107.008C87.8015 109.63 91.1424 111.416 94.7796 112.14C98.4167 112.863 102.187 112.492 105.613 111.073C109.039 109.654 111.967 107.25 114.028 104.167C116.088 101.084 117.188 97.4584 117.188 93.75C117.182 88.7789 115.205 84.013 111.69 80.4979C108.174 76.9828 103.409 75.0056 98.4375 75ZM98.4375 67.9688C103.537 67.9688 108.521 69.4808 112.761 72.3137C117 75.1466 120.305 79.173 122.256 83.8839C124.208 88.5948 124.718 93.7786 123.723 98.7797C122.729 103.781 120.273 108.375 116.668 111.98C113.062 115.586 108.468 118.041 103.467 119.036C98.4661 120.031 93.2823 119.52 88.5714 117.569C83.8605 115.617 79.8341 112.313 77.0012 108.073C74.1683 103.834 72.6562 98.8491 72.6562 93.75C72.6562 86.9124 75.3725 80.3548 80.2074 75.5199C85.0423 70.685 91.5999 67.9688 98.4375 67.9688Z" fill="white"/>
<path d="M110.038 105.355C107.828 107.564 105.618 107.564 103.409 105.355L86.8357 88.7818C84.626 86.5721 84.626 84.3624 86.8357 82.1526C89.0455 79.9429 91.2552 79.9429 93.4649 82.1526L110.038 98.7255C112.247 100.935 112.247 103.145 110.038 105.355Z" fill="black"/>
<path d="M110.04 82.1487C112.25 84.3584 112.25 86.5682 110.04 88.7779L93.4673 105.351C91.2576 107.56 89.0479 107.56 86.8382 105.351C84.6285 103.141 84.6285 100.931 86.8382 98.7216L103.411 82.1487C105.621 79.939 107.83 79.939 110.04 82.1487Z" fill="black"/>
</svg>
