<svg width="100" height="100" viewBox="0 0 100 100" fill="none" xmlns="http://www.w3.org/2000/svg">
<g clip-path="url(#clip0_214_20673)">
<g clip-path="url(#clip1_214_20673)">
<path d="M71.2178 6.67603C76.9108 6.67603 81.526 11.2912 81.526 16.9841L81.5261 42.7145C80.5634 42.6031 79.5951 42.5473 78.626 42.5475C64.9231 42.5475 53.8147 53.6069 53.8147 67.2494C53.8147 77.1158 59.6247 85.6311 68.0243 89.5892L16.0039 89.5885C10.3109 89.5885 5.6958 84.9734 5.6958 79.2804V16.9841C5.6958 11.2912 10.3109 6.67603 16.0039 6.67603H71.2178ZM78.626 45.7695C90.4306 45.7695 100 55.3383 100 67.142C100 78.9458 90.4306 88.5146 78.626 88.5146C66.8213 88.5146 57.2517 78.9458 57.2517 67.142C57.2517 55.3383 66.8213 45.7695 78.626 45.7695ZM87.6154 59.6313L87.5878 59.6565L74.0347 72.1618L69.1361 68.163L69.0866 68.1236C68.169 67.4179 66.8505 67.5659 66.1136 68.4685C65.3711 69.3779 65.4974 70.7127 66.3909 71.4674L66.4191 71.4908L72.6488 76.5763L72.6984 76.6157C73.1045 76.9286 73.6094 77.0853 74.1212 77.0574C74.68 77.0844 75.2272 76.8917 75.6458 76.5205L75.6789 76.4904L90.5013 62.8135L90.548 62.7691C91.3749 61.9598 91.4131 60.6342 90.6232 59.7783C89.8271 58.9155 88.488 58.8531 87.6153 59.6312L87.6154 59.6313ZM46.1841 50.0598H20.3033L20.2374 50.0605C18.7255 50.0955 17.5107 51.332 17.5107 52.8521C17.5107 54.3789 18.7361 55.6195 20.2571 55.6442L20.3033 55.6446H46.1841L46.25 55.6438C47.7619 55.6088 48.9768 54.3723 48.9768 52.8521C48.9768 51.31 47.7265 50.0598 46.1841 50.0598ZM60.5468 28.2633H20.3033L20.2374 28.2641C18.7255 28.2991 17.5107 29.5356 17.5107 31.0558C17.5107 32.5825 18.7361 33.8231 20.2571 33.8477L20.3033 33.8481H60.5468L60.6127 33.8474C62.1246 33.8123 63.3394 32.5759 63.3394 31.0558C63.3394 29.5136 62.0892 28.2633 60.5468 28.2633Z" fill="#979797"/>
</g>
</g>
<defs>
<clipPath id="clip0_214_20673">
<rect width="100" height="100" fill="white"/>
</clipPath>
<clipPath id="clip1_214_20673">
<rect width="100" height="100" fill="white"/>
</clipPath>
</defs>
</svg>
