<svg width="100" height="100" viewBox="0 0 100 100" fill="none" xmlns="http://www.w3.org/2000/svg">
<path d="M59.4727 78.623H20.9473C13.9746 78.623 8.26172 72.9199 8.26172 65.9375V18.7793C8.26172 11.8066 13.9648 6.09375 20.9473 6.09375H59.4727C66.4453 6.09375 72.1582 11.7969 72.1582 18.7793V65.9375C72.1582 72.9101 66.4551 78.623 59.4727 78.623Z" fill="#979797"/>
<path d="M56.5586 89.4629C56.5586 90.7129 55.543 91.7188 54.3027 91.7188H31.4219C25.7578 91.7188 21.1582 87.1289 21.1582 81.4551V21.4844C21.1582 15.8203 25.748 11.2207 31.4219 11.2207H80.1719C85.8359 11.2207 90.4355 15.8105 90.4355 21.4844V39.873C90.4355 41.123 89.4199 42.1289 88.1797 42.1289C86.9297 42.1289 85.9238 41.1133 85.9238 39.873V21.4844C85.9238 18.3105 83.3555 15.7422 80.1816 15.7422H31.4219C28.248 15.7422 25.6797 18.3105 25.6797 21.4844V81.4648C25.6797 84.6387 28.248 87.207 31.4219 87.207H54.3027C55.543 87.207 56.5586 88.2129 56.5586 89.4629ZM33.8828 40.0781C32.6426 40.0781 31.627 41.0938 31.627 42.334C31.627 43.5742 32.6426 44.5898 33.8828 44.5898H45.3379C46.5781 44.5898 47.5937 43.5742 47.5937 42.334C47.5937 41.0938 46.5781 40.0781 45.3379 40.0781H33.8828ZM98.4434 92.8418C97.4375 93.8477 95.7871 93.8477 94.7715 92.8418L84.6152 82.6855C80.2891 86.1621 74.8105 88.2617 68.8438 88.2617C54.9375 88.2617 43.6289 76.9531 43.6289 63.0469C43.6289 49.1406 54.9375 37.832 68.8438 37.832C82.75 37.832 94.0586 49.1406 94.0586 63.0469C94.0586 69.1211 91.9004 74.6875 88.3164 79.0527L98.4531 89.1895C99.4492 90.1758 99.4492 91.8262 98.4434 92.8418ZM89.5273 63.0371C89.5273 51.6211 80.2402 42.3438 68.834 42.3438C57.4277 42.3438 48.1406 51.6309 48.1406 63.0371C48.1406 74.4434 57.4277 83.7305 68.834 83.7305C80.2402 83.7305 89.5273 74.4434 89.5273 63.0371ZM82.8965 60.957C81.8027 60.957 80.9238 61.8359 80.9238 62.9297C80.9238 69.3164 75.7285 74.5215 69.332 74.5215C68.2383 74.5215 67.3594 75.4004 67.3594 76.4941C67.3594 77.5879 68.2383 78.4668 69.332 78.4668C73.4824 78.4668 77.3789 76.8555 80.3086 73.916C83.2383 70.9863 84.8594 67.0801 84.8594 62.9394C84.8691 61.8457 83.9902 60.957 82.8965 60.957ZM62.6719 48.9062C59.2734 50.5273 56.5781 53.3203 55.084 56.7773C54.6543 57.7734 55.1133 58.9355 56.1094 59.375C56.3633 59.4824 56.627 59.5312 56.8906 59.5312C57.6523 59.5312 58.3848 59.0918 58.6973 58.3398C59.8105 55.7617 61.8223 53.6719 64.3613 52.4609C65.3477 51.9922 65.7578 50.8203 65.2891 49.834C64.8301 48.8574 63.6582 48.4375 62.6719 48.9062ZM71.7637 26.7969C71.7637 25.5566 70.748 24.541 69.5078 24.541H33.8828C32.6426 24.541 31.627 25.5566 31.627 26.7969C31.627 28.0371 32.6426 29.0527 33.8828 29.0527H69.5078C70.748 29.0625 71.7637 28.0469 71.7637 26.7969Z" fill="black"/>
</svg>
